# xmcd
#
# Track frame offsets:
#	150
#	16654
#	37177
#	52837
#	76194
#	94424
#	119061
#	141005
#	160604
#
# Disc length: 2448 seconds
#
# Revision: 0
# Processed by: cddbd v1.5.2PL0 Copyright (c) Steve Scherf et al.
# Submitted via: audiograbber 1.83.01
#
DISCID=6a098e09
DTITLE=The Frog - Be Kind To Animals Kiss A Frog
DYEAR=1982
DGENRE=
TTITLE0=Two Together
TTITLE1=Chrissie
TTITLE2=I Can Only Love You
TTITLE3=Cryin'
TTITLE4=I Wonder Why
TTITLE5=We Got Love
TTITLE6=Switch Off (The Key)
TTITLE7=Feels So Sad
TTITLE8=Time Is Killin' You
EXTD=
EXTT0=
EXTT1=
EXTT2=
EXTT3=
EXTT4=
EXTT5=
EXTT6=
EXTT7=
EXTT8=
PLAYORDER=
